<svg id="logo" xmlns="http://www.w3.org/2000/svg" width="1078.09" height="136.906" viewBox="0 0 1078.09 136.906">
  <defs>
    <style>
      .cls-1 {
        fill: #fff;
      }

      .cls-1, .cls-2 {
        fill-rule: evenodd;
      }

      .cls-2 {
        fill: #d41640;
      }
    </style>
  </defs>
  <path class="cls-1" d="M287,765l24-29h86v84H293s-45.051-5.967-57-32c0,0,24.949-7.567,31-24,0,0,8.549,21.633,33,22s56,0,56,0V765H287Z" transform="translate(-88 -683.094)"/>
  <path class="cls-1" d="M116,685h95s26.179,1.663,34,12c0,0-14.678,6.806-24,29,0,0-2.221-5.165-13-5-10.206.157-119,0-119,0Z" transform="translate(-88 -683.094)"/>
  <path class="cls-2" d="M402,685l-28,35H307s-34.576-2.2-41,26c-8.321,36.529-51,39.25-58,39s-78,1-78,1v34H89l-1-69H208s15.467-.283,17-15c1.449-13.9,23.533-49.883,75-51C352.662,683.857,402,685,402,685Z" transform="translate(-88 -683.094)"/>
  <path id="SPORTS" class="cls-1" d="M415.41,816.1q20.707,1.71,40.09,2.66l17.48,0.76q10.83,0.378,20.52.38,18.618,0,27.36-8.74t8.74-27.36v-9.5q0-18.618-8.74-27.36T493.5,738.2H459.3q-11.4,0-11.4-11.4V723q0-11.4,11.4-11.4h59.09V685H451.7q-19.95,0-28.975,9.025T413.7,723v5.7q0,19.95,9.025,28.975T451.7,766.7h43.7v17.1a8.847,8.847,0,0,1-9.5,9.5q-18.432,0-70.49-2.85V816.1ZM542.9,818h34.2V780h45.6q19.95,0,28.975-9.025T660.7,742V723q0-19.95-9.025-28.975T622.7,685H542.9V818Zm83.6-76q0,11.4-11.4,11.4h-38V711.6h38q11.4,0,11.4,11.4v19Zm133,39.9q0,11.4-11.4,11.4H715.8q-11.4,0-11.4-11.4V721.1q0-11.4,11.4-11.4h32.3q11.4,0,11.4,11.4v60.8Zm34.2-60.8q0-19.95-9.025-28.975T755.7,683.1H708.2q-19.95,0-28.975,9.025T670.2,721.1v60.8q0,19.95,9.025,28.975T708.2,819.9h47.5q19.95,0,28.975-9.025T793.7,781.9V721.1ZM808.9,818h34.2V778.1h26.6l21.85,39.9H928.6l-23.75-41.8q11.4-2.85,16.625-11.59T926.7,740.1V723q0-19.95-9.025-28.975T888.7,685H808.9V818Zm83.6-77.9q0,11.4-11.4,11.4h-38V711.6h38q11.4,0,11.4,11.4v17.1Zm113.993-28.5h39.9V685h-114v26.6h39.9V818h34.2V711.6Zm45.41,104.5q20.715,1.71,40.09,2.66l17.48,0.76q10.83,0.378,20.52.38,18.63,0,27.36-8.74,8.745-8.737,8.74-27.36v-9.5q0-18.618-8.74-27.36t-27.36-8.74h-34.2q-11.4,0-11.4-11.4V723q0-11.4,11.4-11.4h59.09V685h-66.69q-19.95,0-28.97,9.025T1050.19,723v5.7q0,19.95,9.03,28.975t28.97,9.025h43.7v17.1a8.84,8.84,0,0,1-9.5,9.5q-18.42,0-70.49-2.85V816.1Z" transform="translate(-88 -683.094)"/>
</svg>
